<?xml version="1.0" encoding="UTF-8"?>
<svg width="193px" height="68px" viewBox="0 0 193 68" version="1.1" xmlns="http://www.w3.org/2000/svg" xmlns:xlink="http://www.w3.org/1999/xlink">
    <!-- Generator: sketchtool 49.3 (51167) - http://www.bohemiancoding.com/sketch -->
    <title>3EC7AA84-D49B-4A42-A712-548E63C94618@3x</title>
    <desc>Created with sketchtool.</desc>
    <defs>
        <polygon id="path-1" points="0 35.6229051 0 0.0307757249 23.7292801 0.0307757249 23.7292801 35.6229051"></polygon>
    </defs>
    <g id="Page-1" stroke="none" stroke-width="1" fill="none" fill-rule="evenodd">
        <g id="Screen-02-Copy-2" transform="translate(-33.000000, -20.000000)">
            <g id="Logo-Piman" transform="translate(33.000000, 20.000000)">
                <path d="M78,52.8388252 C78,51.8098138 78.8807947,51 80,51 C81.1192715,51 82,51.8098138 82,52.8388252 L82,66.1611748 C82,67.1901862 81.1192715,68 80,68 C78.8807947,68 78,67.1901862 78,66.1611748 L78,52.8388252 Z" id="Fill-1" fill="#5B5BE5"></path>
                <path d="M84.6886617,66.0127524 C84.2839219,65.7297202 84,65.2118314 84,64.6457669 C84,63.7003188 84.7551115,62.9716614 85.7035316,62.9716614 C86.1747212,62.9716614 86.5069703,63.1342543 86.7486059,63.3028693 C88.0050511,64.2242295 89.3763941,64.790294 90.9893123,64.790294 C92.4814126,64.790294 93.3814452,64.2001417 93.3814452,63.2306057 L93.3814452,63.18243 C93.3814452,62.2610698 92.8136013,61.7913567 90.0408922,61.0807651 C86.7002788,60.2316684 84.5436803,59.3103082 84.5436803,56.0283386 L84.5436803,55.9801629 C84.5436803,52.9812256 86.9600372,51 90.3489173,51 C92.3605344,51 94.1123931,51.5178888 95.6044935,52.4633369 C96.0092333,52.6981934 96.4079322,53.1980163 96.4079322,53.9025859 C96.4079322,54.848034 95.6528206,55.5766915 94.7044006,55.5766915 C94.3479275,55.5766915 94.064066,55.4803401 93.7801441,55.3177471 C92.5719656,54.6071555 91.4362779,54.209706 90.3005901,54.209706 C88.9052045,54.209706 88.1682156,54.848034 88.1682156,55.648955 L88.1682156,55.6971307 C88.1682156,56.781084 88.8809805,57.1363797 91.7444238,57.8710592 C95.1092007,58.7442437 97,59.9486362 97,62.8271343 L97,62.87531 C97,66.1572795 94.4869888,68 90.9107807,68 C88.7360595,68 86.5371747,67.3375841 84.6886617,66.0127524" id="Fill-3" fill="#5B5BE5"></path>
                <path d="M101,59.5479211 L101,59.5 C101,54.8276956 104.547868,51 109.634352,51 C112.120274,51 113.797667,51.6589147 115.173311,52.6652572 C115.553439,52.9467935 115.885298,53.461945 115.885298,54.0968992 C115.885298,55.0852713 115.082804,55.8579986 114.087228,55.8579986 C113.592458,55.8579986 113.260599,55.6723044 113.001146,55.5045807 C111.981436,54.755814 110.919489,54.3305144 109.616251,54.3305144 C106.822607,54.3305144 104.813355,56.6307259 104.813355,59.4520789 L104.813355,59.5 C104.813355,62.3213531 106.774336,64.6694856 109.616251,64.6694856 C111.154867,64.6694856 112.168544,64.2022551 113.212329,63.3756166 C113.495977,63.1420014 113.876046,62.9742777 114.298411,62.9742777 C115.221581,62.9742777 116,63.7230444 116,64.6395349 C116,65.2026075 115.716352,65.6518675 115.384493,65.9334038 C113.894147,67.2272727 112.144348,68 109.495575,68 C104.614179,68 101,64.2681466 101,59.5479211" id="Fill-5" fill="#5B5BE5"></path>
                <path d="M118,60.6278904 L118,52.8263963 C118,51.8043401 118.834027,51 119.893805,51 C120.953646,51 121.78761,51.8043401 121.78761,52.8263963 L121.78761,60.5311277 C121.78761,63.2344361 123.186015,64.6314479 125.500031,64.6314479 C127.813985,64.6314479 129.21239,63.2828175 129.21239,60.6460334 L129.21239,52.8263963 C129.21239,51.8043401 130.046417,51 131.106195,51 C132.165973,51 133,51.8043401 133,52.8263963 L133,60.506937 C133,65.5325507 130.071501,68 125.449864,68 C120.828165,68 118,65.5144077 118,60.6278904" id="Fill-7" fill="#5B5BE5"></path>
                <path d="M135.688662,66.0127524 C135.283922,65.7297202 135,65.2118314 135,64.6457669 C135,63.7003188 135.755112,62.9716614 136.703532,62.9716614 C137.174721,62.9716614 137.50697,63.1342543 137.748606,63.3028693 C139.005051,64.2242295 140.376394,64.790294 141.989312,64.790294 C143.481413,64.790294 144.381445,64.2001417 144.381445,63.2306057 L144.381445,63.18243 C144.381445,62.2610698 143.813601,61.7913567 141.040892,61.0807651 C137.700279,60.2316684 135.54368,59.3103082 135.54368,56.0283386 L135.54368,55.9801629 C135.54368,52.9812256 137.960037,51 141.348917,51 C143.360534,51 145.112393,51.5178888 146.604493,52.4633369 C147.009233,52.6981934 147.407932,53.1980163 147.407932,53.9025859 C147.407932,54.848034 146.652821,55.5766915 145.704401,55.5766915 C145.347928,55.5766915 145.064066,55.4803401 144.780144,55.3177471 C143.571966,54.6071555 142.436278,54.209706 141.30059,54.209706 C139.905204,54.209706 139.168216,54.848034 139.168216,55.648955 L139.168216,55.6971307 C139.168216,56.781084 139.88098,57.1363797 142.744424,57.8710592 C146.109201,58.7442437 148,59.9486362 148,62.8271343 L148,62.87531 C148,66.1572795 145.486989,68 141.910781,68 C139.742161,68 137.537235,67.3375841 135.688662,66.0127524" id="Fill-9" fill="#5B5BE5"></path>
                <path d="M149.688662,66.0127524 C149.283922,65.7297202 149,65.2118314 149,64.6457669 C149,63.7003188 149.755112,62.9716614 150.703532,62.9716614 C151.174721,62.9716614 151.50697,63.1342543 151.748606,63.3028693 C153.005051,64.2242295 154.376394,64.790294 155.989312,64.790294 C157.481413,64.790294 158.381445,64.2001417 158.381445,63.2306057 L158.381445,63.18243 C158.381445,62.2610698 157.813601,61.7913567 155.040892,61.0807651 C151.700279,60.2316684 149.54368,59.3103082 149.54368,56.0283386 L149.54368,55.9801629 C149.54368,52.9812256 151.960037,51 155.348917,51 C157.360534,51 159.112393,51.5178888 160.604493,52.4633369 C161.009233,52.6981934 161.407932,53.1980163 161.407932,53.9025859 C161.407932,54.848034 160.652821,55.5766915 159.704401,55.5766915 C159.347928,55.5766915 159.064066,55.4803401 158.780144,55.3177471 C157.571966,54.6071555 156.436278,54.209706 155.30059,54.209706 C153.905204,54.209706 153.168216,54.848034 153.168216,55.648955 L153.168216,55.6971307 C153.168216,56.781084 153.88098,57.1363797 156.744424,57.8710592 C160.109201,58.7442437 162,59.9486362 162,62.8271343 L162,62.87531 C162,66.1572795 159.486989,68 155.910781,68 C153.742161,68 151.537235,67.3375841 149.688662,66.0127524" id="Fill-11" fill="#5B5BE5"></path>
                <path d="M70.2529792,59.5464481 C70.2529792,62.5562842 68.2786787,64.6185792 65.3498366,64.6185792 L64.4012237,64.6185792 L62.5810728,66.6684882 L62.5810728,64.6185792 L62.5810728,63.4666667 L62.5810728,54.3752277 L65.3498366,54.3752277 C68.2786787,54.3752277 70.2529792,56.4870674 70.2529792,59.4969035 L70.2529792,59.5464481 Z M65.3498366,51 L60.7905068,51 C59.7885344,51 59,51.8236794 59,52.8703097 L59,66.1296903 C59,67.1763206 59.7885344,68 60.7905068,68 L65.3498366,68 C70.4664171,68 74,64.284153 74,59.5030965 L74,59.4535519 C73.9941305,54.6663024 70.4604883,51 65.3498366,51 Z" id="Fill-13" fill="#5B5BE5"></path>
                <g id="Group-17" transform="translate(0.000000, 12.000000)">
                    <mask id="mask-2" fill="white">
                        <use xlink:href="#path-1"></use>
                    </mask>
                    <g id="Clip-16"></g>
                    <path d="M5.43948865,16.5975842 C7.66125643,16.5975842 9.61782647,16.6037406 11.5685032,16.5914278 C12.3582032,16.5852715 13.1596897,16.6160533 13.9317098,16.4929258 C16.9019246,16.0127285 18.5579372,13.8764659 18.5107909,10.6689939 C18.4636446,7.62774402 16.7840589,5.30063379 14.03773,5.0666915 C11.2325861,4.8327492 8.39202356,5.01744049 5.43353643,5.01744049 C5.43948865,8.93905216 5.43948865,12.5159068 5.43948865,16.5975842 M0.00588149668,0.0307757249 C4.4376305,0.0430884774 8.87527278,0.0369321011 13.3070218,0.0800267349 C19.2592379,0.141590497 23.402216,4.1062968 23.7086667,9.97332337 C24.0386906,16.3636419 20.384855,20.9316731 14.2617337,21.4672778 C11.438851,21.7135329 8.58060862,21.5103725 5.29215657,21.5103725 L5.29215657,30.7141549 C5.29215657,35.7931654 4.98570584,36.0578895 -1.17865665e-05,35.312968 C0.00588149668,23.548133 0.00588149668,11.7894544 0.00588149668,0.0307757249" id="Fill-15" fill="#443642" mask="url(#mask-2)"></path>
                </g>
                <g id="Group-20" transform="translate(37.000000, 0.000000)" fill="#5B5BE5">
                    <path d="M5.99496792,0.0239354778 C5.52890744,2.45399399 5.28630061,4.94989153 4.48825184,7.28418419 C4.14349477,8.29571101 2.71345521,9.57059392 1.67912016,9.65438905 C-0.485188116,9.82796465 0.0320113324,8.03235491 0.30015572,6.84725249 C0.817227481,4.55485739 1.5195104,2.29238911 2.14524448,0.0239354778 C3.42844307,0.0239354778 4.71164165,0.0239354778 5.99496792,0.0239354778" id="Fill-18"></path>
                </g>
                <path d="M62.8634362,25.5528025 L62.8634362,39.0484391 L62.8634362,42.6895438 C62.8517872,47.0129782 62.554739,47.2786641 58.0058245,46.6567175 C58.0058245,35.3288364 58.0058245,23.9647253 58,12.5945759 C62.1528503,11.4412576 62.7294732,11.7190201 64.505938,15.6560023 C67.0570578,21.3139045 69.6081776,26.9718068 72.3748029,33.106736 C73.0212613,32.0862606 73.493102,31.5065822 73.7901502,30.8423675 C75.997626,25.8909482 78.158506,20.921414 80.3484502,15.9699947 C82.1656862,11.8579014 82.1773934,11.8639397 87,12.3107751 L87,46.4212232 C82.8646231,47.6530397 82.1249149,47.1156296 82.1191487,42.8767316 C82.1133242,37.0799481 82.1191487,31.2771262 81.4435096,25.3414614 C79.5505554,29.4837463 77.7566173,33.6864144 75.6889289,37.7441628 C75.0948325,38.9095579 73.6678362,40.4614051 72.7300959,40.382907 C71.5477858,40.286294 70.068311,38.9397495 69.4276189,37.7320862 C67.3016857,33.7226443 65.5019231,29.5320528 63.574022,25.4078829 C63.3409848,25.4501511 63.1022396,25.5044959 62.8634362,25.5528025" id="Fill-21" fill="#443642"></path>
                <path d="M31.5386295,17.8533848 C33.9469972,27.8186985 36.2725218,37.4287532 38.592129,47.038808 C38.9294188,47.0147226 39.2607913,46.9966586 39.5980811,46.9725733 C41.9531925,37.3986466 44.3083039,27.8186985 46.7640105,17.8533848 C41.4857798,17.8533848 36.8050847,17.8533848 31.5386295,17.8533848 M38.6454445,66 C34.0180056,48.2009261 29.5445366,30.9738794 25,13.4939364 C25.9763653,13.2831896 26.603606,13.0363147 27.2308467,13.0363147 C35.0536037,13.0062081 42.8764198,13.0363147 50.6991176,13.0001867 C52.3322513,12.9941654 53.4329404,13.1206135 52.8352273,15.3304444 C48.3853686,31.8108453 43.9946835,48.3093102 39.5744708,64.8017538 C39.5330493,64.9643299 39.3495518,65.1028207 38.6454445,66" id="Fill-23" fill="#5B5BE5"></path>
                <path d="M100.560872,34.5677232 L109.795019,34.5677232 C108.301689,30.9711501 106.954192,27.7143185 105.239195,23.5847028 C103.477532,27.7201761 102.089202,30.9770078 100.560872,34.5677232 M105.635861,13 C110.069185,23.778004 114.502509,34.556008 119,45.4863099 C116.065839,46.4879613 114.018285,46.0193525 113.35912,43.061259 C112.583347,39.6052686 110.512518,38.5333258 107.239966,39.072226 C106.481634,39.1952358 105.670803,39.177663 104.906638,39.0780836 C100.79998,38.5508986 97.574153,39.1893782 96.4541553,44.068768 C95.8649899,46.6461168 93.4674365,45.9080579 91,45.8846274 C95.7074902,34.7083059 100.257481,23.8892986 104.813246,13.0761489 C105.081696,13.0468609 105.355862,13.0234304 105.635861,13" id="Fill-25" fill="#443642"></path>
                <path d="M143.25903,34.8715719 L143.25903,16.3863108 C143.25903,11.8513894 143.264971,11.8513894 148,12.1909022 L148,46.6514546 C145.201759,47.5366131 143.294677,46.7423956 141.726236,44.1778612 C137.995247,38.0666302 134.062262,32.0887793 130.20057,26.0624265 C129.683698,25.2560835 129.113356,24.4800542 127.830086,23.8374049 L127.830086,29.118042 C127.830086,33.7863434 127.835967,38.4546449 127.830086,43.1229463 C127.824144,47.1971003 127.473622,47.4638603 123,46.5968901 L123,12.3667214 C125.940827,11.4451866 127.901378,12.2454668 129.523289,14.9373185 C133.165162,20.9818595 137.068441,26.8627067 140.870722,32.810244 C141.393536,33.6226497 141.975701,34.3926163 142.528279,35.1868338 C142.777745,35.0777047 143.015387,34.9746383 143.25903,34.8715719" id="Fill-27" fill="#443642"></path>
                <path d="M166.651074,57.6477052 C167.167556,56.8459308 167.631216,56.0077122 168.20052,55.2545302 C170.119779,52.7338002 171.892252,50.1401816 172.655237,46.9634544 C172.70219,46.7690848 172.760881,46.5807893 172.796096,46.3864198 C173.253886,43.6591721 172.801965,43.1064337 170.102172,43.1064337 C167.502155,43.1064337 164.896268,43.1246559 162.29625,43.0942857 C159.326478,43.0578414 158.035273,41.751921 158.017607,38.7209709 C157.994131,33.3332902 157.994131,27.9516834 158.017607,22.5640026 C158.029404,19.6120152 159.572923,18.0266886 162.407705,18.0145405 C167.466881,17.9963184 172.526116,17.9963184 177.585234,18.0084665 C180.455231,18.0206146 181.951855,19.581645 181.957724,22.5640026 C181.969462,27.7026474 181.85208,32.8412922 181.99288,37.973863 C182.12787,42.9849528 180.33779,47.1092315 177.098039,50.6564757 C174.222173,53.8028327 170.818087,56.1777855 167.050115,58 C166.921054,57.878519 166.786064,57.7631121 166.651074,57.6477052" id="Fill-29" fill="#5B5BE5"></path>
                <path d="M182.77417,48.7780633 C183.117279,48.2757855 183.424272,47.7559865 183.809517,47.2829109 C185.091663,45.7118327 186.271538,44.0881906 186.777112,42.1024413 C186.80721,41.9797921 186.849346,41.8629833 186.867404,41.7403341 C187.174397,40.0349258 186.873424,39.6903399 185.073604,39.6903399 C183.339999,39.6903399 181.606454,39.7020208 179.866769,39.6844995 C177.886366,39.6611377 177.025583,38.8434762 177.013544,36.9511739 C176.995485,33.5870809 176.995485,30.2171475 177.013544,26.8530545 C177.025583,25.0074758 178.048891,24.0146011 179.938942,24.0087607 C183.309842,23.9970798 186.68676,23.9970798 190.057659,24.0087607 C191.971848,24.0146011 192.96506,24.9957949 192.971079,26.8530545 C192.977099,30.0652961 192.904925,33.2775377 192.995217,36.4839388 C193.085509,39.6144142 191.893656,42.1958883 189.732669,44.4094148 C187.818479,46.3776428 185.543122,47.8611144 183.033007,49 C182.948674,48.9182339 182.864462,48.8481486 182.77417,48.7780633" id="Fill-31" fill="#AAAAFF"></path>
            </g>
        </g>
    </g>
</svg>